<svg width="199" height="199" viewBox="0 0 199 199" fill="none" xmlns="http://www.w3.org/2000/svg">
<circle cx="100.044" cy="99.9188" r="83.4033" fill="#0B9EF4"/>
<path d="M129.812 99.7027C129.812 113.319 129.812 126.934 129.812 140.55C129.812 144.264 126.897 147.58 123.19 148.124C122.6 148.21 122.015 148.229 121.424 148.229C106.576 148.231 91.7262 148.235 76.8784 148.229C73.1039 148.229 70.0861 145.847 69.1714 142.173C69.0558 141.71 69 141.236 69 140.754C69.0039 113.632 69 86.5109 69.0058 59.3877C69.0058 55.3145 72.3836 51.6736 76.4509 51.3642C79.2163 51.1529 81.9875 51.2835 84.7568 51.2816C96.9278 51.2662 109.099 51.2701 121.268 51.2797C125.046 51.2816 128.387 53.6737 129.443 57.0705C129.735 58.0158 129.784 58.9823 129.784 59.9621C129.78 73.2096 129.782 86.4571 129.782 99.7046H129.811L129.812 99.7027ZM127.215 99.9313H127.213C127.213 91.4737 127.213 83.0179 127.213 74.5603C127.213 69.4746 127.205 64.3908 127.207 59.305C127.207 57.6988 126.581 56.3635 125.399 55.3106C124.276 54.3096 122.947 53.7966 121.414 53.7966C106.732 53.8043 92.0497 53.8024 77.3675 53.7966C74.1264 53.7966 71.6557 56.229 71.6557 59.4703C71.6537 86.5378 71.6557 113.603 71.6557 140.671C71.6557 142.45 72.4414 143.799 73.8896 144.808C75.0932 145.647 76.4586 145.734 77.8548 145.734C85.5926 145.734 93.3304 145.739 101.07 145.739C107.83 145.739 114.589 145.736 121.349 145.73C124.081 145.728 126.042 144.525 126.905 142.341C127.253 141.459 127.215 140.535 127.215 139.616C127.218 126.388 127.217 113.158 127.217 99.9294L127.215 99.9313Z" fill="#FFFDF6" stroke="#FFFDF6" stroke-width="0.769758" stroke-miterlimit="10"/>
<path d="M75.377 98.3482C75.377 87.1834 75.377 76.0167 75.377 64.852C75.377 63.7837 75.7987 63.3399 76.8117 63.3399C91.7461 63.3399 106.681 63.3399 121.617 63.3399C121.74 63.3399 121.864 63.3399 121.989 63.3399C122.9 63.3495 123.35 63.8087 123.352 64.7713C123.358 67.3132 123.354 69.857 123.354 72.3989C123.354 92.2058 123.358 112.013 123.36 131.82C123.36 133.061 123.013 133.428 121.813 133.428C106.914 133.428 92.0138 133.428 77.114 133.428C77.0081 133.428 76.9022 133.428 76.7963 133.426C75.7968 133.408 75.3827 132.986 75.3808 131.95C75.377 125.648 75.3789 119.348 75.3789 113.046C75.3789 108.145 75.3789 103.244 75.3789 98.3424L75.377 98.3482ZM120.916 98.4212H120.912C120.912 87.7733 120.908 77.1234 120.924 66.4755C120.924 65.9875 120.81 65.8664 120.344 65.8683C113.989 65.8856 107.634 65.8799 101.281 65.8799C93.6546 65.8799 86.0304 65.8799 78.4043 65.876C78.0885 65.876 77.8574 65.8434 77.8593 66.341C77.8805 81.9075 77.8863 97.4759 77.892 113.042C77.892 118.808 77.892 124.576 77.8785 130.342C77.8785 130.753 77.9594 130.92 78.3947 130.901C79.2574 130.863 80.124 130.89 80.9887 130.89C94.1033 130.89 107.22 130.89 120.334 130.895C120.706 130.895 120.931 130.903 120.931 130.367C120.914 119.719 120.918 109.069 120.918 98.4212H120.916Z" fill="#FFFDF6" stroke="#FFFDF6" stroke-width="0.769758" stroke-miterlimit="10"/>
<path d="M99.1645 140.368C97.2637 140.368 95.361 140.369 93.4603 140.368C92.5455 140.368 92.014 139.901 92.0256 139.132C92.0371 138.41 92.5956 137.949 93.4661 137.949C97.3061 137.947 101.146 137.945 104.986 137.943C105.839 137.943 106.427 138.423 106.44 139.126C106.454 139.847 105.851 140.366 104.98 140.368C103.041 140.371 101.104 140.368 99.1645 140.368Z" fill="#FFFDF6" stroke="#FFFDF6" stroke-width="0.769758" stroke-miterlimit="10"/>
<path d="M99.4131 80.7929C108.736 80.8063 116.516 88.4205 116.314 97.8023C116.112 107.213 108.193 114.381 99.0954 114.191C90.541 114.011 82.6568 106.942 82.8128 97.0587C82.9534 88.2015 90.6489 80.6622 99.4112 80.7929H99.4131ZM99.4747 82.9236C91.5424 82.7968 85.0178 89.7308 85.0178 97.2797C85.0178 105.415 91.294 111.96 99.2148 111.999C107.769 112.041 114.072 105.43 114.082 97.4295C114.093 89.1198 106.85 82.8064 99.4747 82.9217V82.9236Z" fill="#FFFDF6" stroke="#FFFDF6" stroke-width="0.769758" stroke-miterlimit="10"/>
<path d="M91.498 96.2941C91.9005 96.2691 92.172 96.5016 92.432 96.761C93.7974 98.1251 95.1705 99.4835 96.5243 100.859C96.7515 101.09 96.8671 101.103 97.102 100.865C100.312 97.6371 103.532 94.4208 106.752 91.2045C106.983 90.974 107.191 90.7069 107.542 90.6377C108.046 90.5378 108.466 90.7146 108.709 91.1373C108.98 91.6099 108.932 92.0537 108.526 92.4611C107.008 93.9847 105.481 95.4987 103.96 97.0165C101.938 99.0339 99.9137 101.049 97.8955 103.071C97.1001 103.868 96.559 103.874 95.7752 103.092C94.144 101.461 92.509 99.8332 90.876 98.2039C90.539 97.8676 90.2905 97.5045 90.4927 96.9934C90.6718 96.5362 91.0089 96.2941 91.498 96.2941Z" fill="#FFFDF6" stroke="#FFFDF6" stroke-width="0.769758" stroke-miterlimit="10"/>
</svg>
