<svg width="199" height="199" viewBox="0 0 199 199" fill="none" xmlns="http://www.w3.org/2000/svg">
<circle cx="100.171" cy="99.9188" r="83.4033" fill="#0B9EF4"/>
<path d="M100.826 134.03C100.584 133.841 100.815 134.177 100.835 134.165C101.009 134.063 101.162 134.118 101.344 134.065C101.349 134.063 101.593 133.646 101.591 133.642C101.401 133.089 101.748 133.19 101.758 133.184L101.367 86.211C101.149 86.2726 100.933 86.3351 100.717 86.3996C100.044 86.6012 99.4033 86.4714 98.7544 86.3006C90.3036 84.0799 81.8509 81.8619 73.4001 79.6393C73.229 79.5945 73.018 79.6468 72.8655 79.42C73.771 79.1689 74.6589 78.915 75.5514 78.676C82.8159 76.7278 90.0804 74.7816 97.3459 72.8371C98.1668 72.6178 98.9915 72.4105 99.8114 72.1893C100.062 72.1221 100.293 72.1538 100.54 72.2164C100.815 72.2864 101.092 72.3555 101.367 72.4255L101.424 69.2713C101.221 69.2199 100.693 69.0967 100.49 69.0454C100.106 68.9483 99.989 68.8372 99.6106 68.9362C96.8485 69.6587 94.0865 70.3849 91.3272 71.1196C83.2715 73.2609 75.2223 75.4303 67.1554 77.5325C66.3271 77.7481 65.5638 78.0142 64.8582 78.3988C64.5077 79.0877 64.4575 79.8111 64.4528 80.5775C64.5458 80.6372 64.6397 80.696 64.7345 80.752C65.2096 80.9182 65.6902 81.062 66.1681 81.2094C66.2676 81.1758 66.3754 81.1749 66.5093 81.2076C74.1708 83.0848 81.7635 85.2243 89.4092 87.1603C91.7734 87.7587 94.1264 88.4009 96.4841 89.0245C96.539 89.0394 96.591 89.0637 96.6719 89.0945L96.6691 89.0982C97.1163 89.283 97.4036 89.7666 97.7048 90.1484C98.1854 90.7589 98.3983 91.4459 98.4178 92.2188C98.4188 92.2674 98.4151 92.3131 98.4086 92.356V130.666C98.3137 130.739 98.2356 130.665 98.1566 130.627C91.7102 127.584 85.2043 124.673 78.7272 121.699C75.3552 120.151 71.9628 118.649 68.5945 117.093C67.8294 116.739 67.3906 116.051 67.3804 115.197C67.3525 112.726 67.3618 110.255 67.3609 107.784C67.359 103.138 67.3609 98.4908 67.3609 93.844V93.3549C67.3711 93.3586 67.3813 93.3623 67.3915 93.3661C67.3915 93.3474 67.3915 93.3287 67.3925 93.31C66.3605 93.3147 65.3267 93.3661 64.2938 93.4015C64.2827 96.9926 64.2855 100.581 64.2855 104.17H64.2883C64.2883 107.854 64.2873 111.536 64.2901 115.22C64.2901 115.529 64.2827 115.838 64.3422 116.147C64.6899 117.964 65.7469 119.213 67.4027 119.977C78.0606 124.894 88.5214 129.657 99.1802 134.572C99.3763 134.663 100.189 134.414 100.386 134.473C100.639 134.38 100.574 134.125 100.827 134.031L100.826 134.03Z" fill="#FFFDF6"/>
<path d="M67.3991 78.6823C67.3991 78.6636 67.3991 78.645 67.4 78.6263C66.6005 78.63 65.7991 78.6618 64.9987 78.6926C64.9661 78.7355 64.9327 78.7794 64.901 78.8251C64.7207 79.0846 64.6101 79.3889 64.4762 79.6737C64.4213 79.7903 64.3674 79.9061 64.3135 80.0218C64.307 83.176 64.3088 86.3312 64.3088 89.4854H64.3116C64.3116 91.0312 64.3116 92.577 64.3116 94.1238C64.5162 94.1182 64.7216 94.1182 64.9299 94.1266H67.3694C67.3694 93.7849 67.3694 93.4433 67.3694 93.1016C67.3675 88.4548 67.3694 83.808 67.3694 79.1612V78.672C67.3796 78.6758 67.3898 78.6795 67.3991 78.6832V78.6823Z" fill="#FFFDF6"/>
<path d="M65.7355 81.3914C66.5364 81.3914 67.1858 80.6396 67.1858 79.7121C67.1858 78.7847 66.5364 78.0328 65.7355 78.0328C64.9345 78.0328 64.2852 78.7847 64.2852 79.7121C64.2852 80.6396 64.9345 81.3914 65.7355 81.3914Z" fill="#FFFDF6"/>
<path d="M135.503 93.4033C134.471 93.3678 133.438 93.3164 132.405 93.3118C132.405 93.3304 132.405 93.3491 132.406 93.3678C132.416 93.3641 132.426 93.3603 132.436 93.3566V93.8457C132.436 98.4925 132.437 103.139 132.436 107.786C132.436 110.257 132.445 112.728 132.417 115.199C132.408 116.053 131.968 116.741 131.203 117.095C127.834 118.651 124.442 120.153 121.07 121.701C114.593 124.675 108.087 127.587 101.641 130.628C101.561 130.666 101.484 130.741 101.389 130.667V92.3568C101.381 92.3139 101.378 92.2682 101.379 92.2196C101.398 91.4476 101.612 90.7597 102.092 90.1492C102.394 89.7674 102.681 89.2838 103.128 89.099C103.127 89.0981 103.126 89.0962 103.125 89.0953C103.206 89.0645 103.258 89.0393 103.313 89.0253C105.671 88.4017 108.024 87.7595 110.388 87.1611C118.034 85.2251 125.626 83.0847 133.288 81.2084C133.422 81.1757 133.53 81.1766 133.629 81.2103C134.108 81.0618 134.588 80.919 135.063 80.7529C135.158 80.6968 135.251 80.6371 135.344 80.5783C135.34 79.8119 135.29 79.0885 134.939 78.3996C134.233 78.015 133.469 77.7489 132.642 77.5333C124.575 75.4311 116.526 73.2617 108.469 71.1194C105.71 70.3857 102.948 69.6595 100.186 68.936C99.8073 68.8371 99.4856 69.0116 99.1017 69.1097C98.899 69.161 98.4351 69.2758 98.2324 69.3272L98.4304 72.4253C98.7056 72.3553 98.9817 72.2863 99.2569 72.2163C99.5042 72.1537 99.7357 72.121 99.9858 72.1892C100.807 72.4104 101.63 72.6167 102.451 72.837C109.717 74.7824 116.981 76.7277 124.246 78.6759C125.138 78.9148 126.026 79.1687 126.932 79.4199C126.778 79.6476 126.567 79.5944 126.397 79.6392C117.946 81.8627 109.495 84.0797 101.043 86.3005C100.393 86.4713 99.7534 86.6011 99.0803 86.3994C98.8646 86.335 98.6471 86.2725 98.4304 86.2109V134.048C98.5346 134.111 98.7754 134.201 98.8404 134.31C98.8851 134.322 98.978 134.457 99.0208 134.472C99.1612 134.523 99.2532 134.386 99.3899 134.445C99.521 134.501 99.5145 134.6 99.6418 134.662C99.6632 134.667 99.7906 134.764 99.8101 134.771C100.055 134.706 100.176 134.834 100.42 134.722C111.078 129.806 121.738 124.893 132.395 119.976C134.051 119.212 135.108 117.963 135.456 116.146C135.515 115.836 135.507 115.527 135.508 115.218C135.511 111.535 135.51 107.852 135.51 104.169H135.513C135.513 100.58 135.516 96.9915 135.506 93.4023L135.503 93.4033Z" fill="#FFFDF6"/>
<path d="M132.397 78.6824C132.397 78.6637 132.397 78.645 132.396 78.6263C133.196 78.6301 133.997 78.6618 134.798 78.6926C134.83 78.7356 134.864 78.7794 134.895 78.8252C135.076 79.0847 135.186 79.389 135.32 79.6737C135.375 79.7904 135.429 79.9061 135.483 80.0219C135.49 83.1761 135.488 86.3312 135.488 89.4854H135.485C135.485 91.0313 135.485 92.5771 135.485 94.1238C135.28 94.1182 135.075 94.1182 134.867 94.1266H132.427C132.427 93.785 132.427 93.4433 132.427 93.1017C132.429 88.4549 132.427 83.808 132.427 79.1612V78.6721C132.417 78.6758 132.407 78.6796 132.397 78.6833V78.6824Z" fill="#FFFDF6"/>
<path d="M134.06 81.3915C134.861 81.3915 135.51 80.6396 135.51 79.7122C135.51 78.7847 134.861 78.0328 134.06 78.0328C133.259 78.0328 132.609 78.7847 132.609 79.7122C132.609 80.6396 133.259 81.3915 134.06 81.3915Z" fill="#FFFDF6"/>
<path d="M49.0493 125.944C49.0493 124.111 49.1973 122.18 49.111 120.306C49.4274 119.287 50.2616 118.601 51.1492 119.078C51.2519 119.131 51.3752 119.143 51.4902 119.16C53.0395 119.423 54.5887 119.669 56.1009 120.167C56.7132 120.368 57.3625 120.388 57.9583 120.672C58.6446 120.997 59.0144 121.744 58.9076 122.542C58.8048 123.298 58.1679 123.984 57.4981 124.042C56.9598 124.087 56.4379 123.955 55.9201 123.811C55.1763 123.602 54.4284 123.409 53.6846 123.212C53.6024 123.191 53.4915 123.125 53.4298 123.248C53.3723 123.364 53.4545 123.462 53.5038 123.548C53.7422 123.992 53.9641 124.448 54.2271 124.872C56.631 128.8 59.5034 132.137 62.9018 134.829C65.4249 136.822 68.0549 138.589 70.6849 140.364C73.623 142.34 76.6721 144.033 79.9185 145.172C82.5855 146.105 85.2894 146.84 88.0344 147.387C89.7028 147.719 91.363 148.098 93.0437 148.328C94.4162 148.517 95.7928 148.611 97.1694 148.755C100.161 149.059 103.157 148.956 106.136 148.574C108.429 148.282 110.722 147.974 113.003 147.518C116.59 146.803 120.075 145.661 123.44 144.021C127.336 142.123 131.014 139.706 134.511 136.896C137.511 134.487 140.247 131.705 142.836 128.697C145.018 126.154 146.946 123.409 148.063 119.965C148.15 119.69 148.281 119.435 148.454 119.225C148.885 118.708 149.399 118.506 149.978 118.745C150.533 118.971 150.891 119.427 150.981 120.15C151.075 120.873 150.8 121.477 150.558 122.094C149.239 125.509 147.328 128.414 145.101 131.023C141.217 135.568 136.944 139.493 132.21 142.686C128.433 145.233 124.566 147.518 120.42 149.055C117.983 149.955 115.513 150.633 112.999 151.077C110.599 151.5 108.199 151.903 105.774 152.059C105.121 152.1 104.463 152.145 103.736 152.186C103.736 152.186 103.744 152.19 103.748 152.195C103.728 152.195 103.711 152.195 103.691 152.195C103.658 152.195 103.629 152.203 103.601 152.207H97.8721C97.8228 152.203 97.7735 152.199 97.7242 152.199C97.6091 152.195 97.4858 152.195 97.3543 152.195C97.3132 152.195 97.268 152.195 97.227 152.195C97.0831 152.178 96.9352 152.166 96.7873 152.162C96.6681 152.162 96.5489 152.162 96.4339 152.162C96.2859 152.145 96.1257 152.125 95.9366 152.112C95.9366 152.112 95.9284 152.112 95.9243 152.112C95.9243 152.104 95.9243 152.1 95.9243 152.092C94.7942 151.981 93.6642 151.874 92.5382 151.751C90.6315 151.545 88.7577 151.122 86.8756 150.711C84.5045 150.193 82.154 149.589 79.8363 148.804C77.1529 147.896 74.6052 146.606 72.1026 145.155C69.7315 143.779 67.418 142.266 65.1619 140.627C62.7416 138.864 60.3376 137.06 58.1391 134.911C55.9242 132.745 53.9476 130.3 52.271 127.518C52.1683 127.35 52.0573 127.185 51.9464 127.029C51.9053 126.972 51.8437 126.93 51.7286 126.828C51.7532 127.432 51.7738 127.962 51.7902 128.492C51.8026 129.047 51.8231 129.606 51.8026 130.16C51.7656 131.134 51.0547 131.886 50.2369 131.845C49.678 131.816 49.2137 131.397 49 130.801C49.0699 129.182 49.0452 127.551 49.0452 125.948L49.0493 125.944Z" fill="#FFFDF6"/>
<path d="M150.951 73.2626C150.951 75.0954 150.803 77.0268 150.889 78.9006C150.573 79.9197 149.738 80.606 148.851 80.1293C148.748 80.0759 148.625 80.0636 148.51 80.0471C146.961 79.7841 145.411 79.5376 143.899 79.0404C143.287 78.839 142.638 78.8184 142.042 78.5349C141.355 78.2103 140.986 77.4624 141.092 76.6652C141.195 75.9091 141.832 75.2228 142.502 75.1653C143.04 75.1201 143.562 75.2516 144.08 75.3954C144.824 75.605 145.572 75.7981 146.315 75.9953C146.398 76.0159 146.509 76.0816 146.57 75.9584C146.628 75.8433 146.545 75.7447 146.496 75.6584C146.258 75.2146 146.036 74.7584 145.773 74.3352C143.369 70.4067 140.497 67.0699 137.098 64.3783C134.575 62.3853 131.945 60.6183 129.315 58.8431C126.377 56.8665 123.328 55.1734 120.081 54.0351C117.415 53.1023 114.711 52.3668 111.966 51.8202C110.297 51.4874 108.637 51.1093 106.956 50.8792C105.584 50.6902 104.207 50.5957 102.831 50.4518C99.839 50.1477 96.8433 50.2505 93.864 50.6326C91.571 50.9244 89.278 51.2326 86.9974 51.6887C83.4099 52.4038 79.9252 53.5461 76.5597 55.1858C72.6641 57.0843 68.9862 59.5005 65.4892 62.3113C62.4894 64.7194 59.7526 67.5014 57.1637 70.5094C54.9817 73.0531 53.0544 75.7981 51.9367 79.2417C51.8504 79.517 51.7189 79.7718 51.5463 79.9814C51.1148 80.4992 50.6011 80.7005 50.0217 80.4622C49.467 80.2362 49.1095 79.78 49.0191 79.0568C48.9245 78.3335 49.1999 77.7295 49.4423 77.1131C50.7614 73.6982 52.6722 70.7929 54.8995 68.1835C58.7828 63.6386 63.0565 59.7142 67.7904 56.5213C71.5669 53.9735 75.4338 51.6887 79.5801 50.1518C82.0169 49.2519 84.4866 48.5739 87.0015 48.1301C89.4013 47.7068 91.8012 47.3041 94.2257 47.1479C94.879 47.1068 95.5365 47.0616 96.2639 47.0205C96.2639 47.0205 96.2557 47.0164 96.2516 47.0123C96.2721 47.0123 96.2885 47.0123 96.3091 47.0123C96.342 47.0123 96.3707 47.0041 96.3995 47H102.128C102.177 47.0041 102.227 47.0082 102.276 47.0082C102.391 47.0123 102.514 47.0123 102.646 47.0123C102.687 47.0123 102.732 47.0123 102.773 47.0123C102.917 47.0288 103.065 47.0411 103.213 47.0452C103.332 47.0452 103.451 47.0452 103.566 47.0452C103.714 47.0616 103.874 47.0822 104.063 47.0945C104.063 47.0945 104.072 47.0945 104.076 47.0945C104.076 47.1027 104.076 47.1068 104.076 47.1151C105.206 47.226 106.336 47.3329 107.462 47.4561C109.369 47.6616 111.242 48.0849 113.124 48.4958C115.495 49.0136 117.846 49.6176 120.164 50.4025C122.847 51.3107 125.395 52.601 127.897 54.0516C130.268 55.4282 132.582 56.9404 134.838 58.5801C137.258 60.343 139.662 62.1469 141.861 64.2961C144.076 66.4617 146.052 68.9068 147.729 71.6888C147.832 71.8573 147.943 72.0216 148.054 72.1778C148.095 72.2353 148.156 72.2764 148.271 72.3791C148.247 71.7751 148.226 71.245 148.21 70.7149C148.197 70.1601 148.177 69.6012 148.197 69.0465C148.234 68.0726 148.945 67.3206 149.763 67.3617C150.322 67.3904 150.786 67.8096 151 68.4054C150.93 70.0245 150.955 71.6559 150.955 73.2585L150.951 73.2626Z" fill="#FFFDF6"/>
</svg>
