<svg width="199" height="199" viewBox="0 0 199 199" fill="none" xmlns="http://www.w3.org/2000/svg">
<circle cx="99.9189" cy="99.9188" r="83.4033" fill="#0B9EF4"/>
<g clip-path="url(#clip0_409_134)">
<path d="M91.903 52.1859C93.0603 52.6116 94.2775 52.8725 95.3388 53.568C98.4537 55.6037 100.19 59.3962 99.4881 63.0478C98.5317 68.0305 96.529 72.6145 93.9177 76.9407C93.0273 78.4157 91.6572 78.8954 89.9963 78.7515C86.4346 78.4427 82.9959 77.5823 79.5811 76.5689C76.8769 75.7655 74.4035 74.6412 72.5477 72.3837C68.6773 67.6738 70.8508 60.1037 76.5771 58.4698C78.3909 57.9511 80.1597 58.2 81.9076 58.7786C82.3123 58.9135 82.5791 58.9795 82.744 58.4428C83.7754 55.067 85.913 52.8605 89.4656 52.1889H91.9L91.903 52.1859ZM96.0163 61.5937C96.0313 59.5341 95.1559 57.7802 93.468 56.659C91.2195 55.163 87.7478 55.3848 86.4856 58.6617C86.1498 59.5341 85.868 60.4245 85.5622 61.3089C85.0105 62.8889 84.1111 63.3296 82.5222 62.793C81.7547 62.5321 81.0052 62.2053 80.2257 62.0015C76.748 61.0991 73.7529 63.8123 74.2356 67.3859C74.6044 70.0992 76.3642 71.6252 78.7477 72.5006C82.2374 73.7838 85.844 74.6262 89.5346 75.1329C90.5479 75.2708 91.0816 74.959 91.5313 74.1015C93.1352 71.0585 94.4514 67.9016 95.4797 64.6218C95.7885 63.6354 96.0073 62.6341 96.0163 61.5937Z" fill="#FFFDF6"/>
<path d="M65.3259 115.801C65.3259 112.024 65.3139 108.246 65.3378 104.469C65.3408 103.881 65.17 103.581 64.6093 103.368C62.8615 102.706 61.1316 101.995 59.4047 101.279C56.4936 100.071 56.011 97.5792 58.2715 95.3996C60.1153 93.6248 61.986 91.8769 63.8388 90.1111C64.7652 89.2297 65.8565 88.669 67.0857 88.3392C77.0722 85.644 87.0526 82.9128 97.0571 80.2745C98.3822 79.9238 98.9698 79.597 99.1737 78.005C99.9112 72.2188 105.928 68.7711 111.085 70.9536C113.025 71.7751 114.29 73.2951 115.213 75.1149C115.528 75.7325 115.762 75.8134 116.394 75.4867C122.417 72.3747 127.676 76.467 128.542 81.4408C128.821 83.0327 128.731 84.6187 128.114 86.1297C127.874 86.7173 127.931 86.9901 128.608 87.146C129.883 87.4398 131.136 87.8236 132.398 88.1683C134.02 88.6121 135.45 89.3885 136.673 90.5578C138.43 92.2427 140.217 93.8976 141.971 95.5885C144.288 97.819 143.823 100.289 140.864 101.519C139.311 102.163 137.758 102.82 136.181 103.401C135.549 103.635 135.372 103.974 135.375 104.628C135.399 111.964 135.369 119.3 135.399 126.636C135.411 129.418 134.212 131.379 131.75 132.656C122.48 137.462 113.216 142.286 103.962 147.122C101.566 148.375 99.2156 148.387 96.8142 147.131C87.5863 142.31 78.3523 137.495 69.1034 132.716C66.5311 131.388 65.2959 129.352 65.3229 126.471C65.3558 122.913 65.3318 119.354 65.3318 115.795L65.3259 115.801ZM98.5621 104.9C98.5051 104.876 98.4452 104.852 98.3882 104.828C96.9132 106.795 95.4411 108.765 93.9601 110.726C92.1883 113.07 90.0237 113.658 87.2805 112.551C81.4703 110.207 75.6601 107.871 69.8619 105.5C69.1034 105.188 68.8875 105.227 68.8935 106.124C68.9265 112.929 68.9235 119.735 68.8995 126.54C68.8935 127.946 69.4541 128.876 70.7103 129.523C79.6834 134.164 88.6386 138.835 97.6027 143.491C97.8935 143.641 98.1543 143.908 98.5651 143.821V104.894L98.5621 104.9ZM102.22 143.827C102.537 143.902 102.732 143.713 102.945 143.602C112.041 138.871 121.134 134.128 130.233 129.403C131.319 128.84 131.825 128.003 131.822 126.78C131.807 119.852 131.816 112.923 131.81 105.995C131.81 105.767 131.906 105.506 131.669 105.272C131.328 105.401 130.98 105.527 130.638 105.665C124.747 108.048 118.856 110.435 112.965 112.818C110.293 113.897 108.081 113.286 106.357 111.001C105.176 109.43 104.004 107.853 102.813 106.288C102.66 106.088 102.591 105.767 102.223 105.749V143.827H102.22ZM139.518 98.2058C137.71 96.4879 135.939 94.866 134.242 93.1721C133.165 92.0958 131.996 91.8829 130.572 92.3026C123.734 94.3293 116.883 96.317 110.039 98.3227C107.694 99.0092 105.356 99.7048 102.909 100.427C105.023 103.245 107.059 105.962 109.097 108.678C109.991 109.868 110.413 109.982 111.804 109.421C117.956 106.933 124.108 104.448 130.257 101.959C133.312 100.721 136.367 99.4799 139.518 98.2028V98.2058ZM97.3419 100.232C97.156 100.149 97.0481 100.083 96.9311 100.047C87.6972 97.3423 78.4662 94.6321 69.2263 91.9459C68.141 91.6311 67.1457 91.8889 66.3002 92.7044C64.6633 94.2873 62.9994 95.8433 61.3535 97.4143C61.1796 97.5792 60.9367 97.7051 60.9217 98.0319C70.2666 101.806 79.6205 105.584 88.9744 109.367C89.7988 109.7 90.4344 109.439 90.9411 108.774C91.8285 107.608 92.7039 106.432 93.5823 105.257C94.8295 103.59 96.0767 101.92 97.3419 100.229V100.232ZM102.579 79.4501C102.579 80.6613 102.897 81.8035 103.413 82.8768C104.993 86.1777 106.924 89.2656 109.103 92.2067C109.691 92.9982 110.305 93.1931 111.253 92.8992C114.718 91.8289 118.061 90.4738 121.245 88.738C122.238 88.1953 123.122 87.5088 123.839 86.6184C125.49 84.5647 125.532 81.6686 123.931 79.6959C122.36 77.7622 120.376 77.4893 117.708 78.8445C117.123 79.1413 116.55 79.4561 115.96 79.7379C114.701 80.3345 113.711 80.0047 113.064 78.7875C112.581 77.8791 112.149 76.9437 111.634 76.0563C111.067 75.0849 110.266 74.3774 109.145 74.0626C105.853 73.1452 102.561 75.8404 102.585 79.4471L102.579 79.4501ZM107.091 95.3546C106.843 95.0309 106.696 94.833 106.54 94.6411C103.983 91.4692 101.86 88.0244 100.181 84.3189C99.8183 83.5214 99.4075 83.2935 98.634 83.5124C98.4242 83.5724 98.2113 83.6203 98.0014 83.6773C90.7252 85.65 83.449 87.6227 76.1757 89.5984C75.8849 89.6764 75.5522 89.6614 75.3393 89.9402C75.3963 89.9732 75.4472 90.0151 75.5042 90.0301C83.6648 92.4226 91.8255 94.809 99.9861 97.2044C100.232 97.2764 100.451 97.3034 100.709 97.2284C102.792 96.6078 104.882 96.0022 107.094 95.3576L107.091 95.3546Z" fill="#FFFDF6"/>
</g>
<defs>
<clipPath id="clip0_409_134">
<rect width="96.105" height="96.105" fill="white" transform="translate(52 52)"/>
</clipPath>
</defs>
</svg>
